<?xml version="1.0" encoding="UTF-8" standalone="no"?>
<!-- Created with Inkscape (http://www.inkscape.org/) -->

<svg
     xmlns:dc="http://purl.org/dc/elements/1.1/"
     xmlns:cc="http://creativecommons.org/ns#"
     xmlns:rdf="http://www.w3.org/1999/02/22-rdf-syntax-ns#"
     xmlns:svg="http://www.w3.org/2000/svg"
     xmlns="http://www.w3.org/2000/svg"
     xmlns:sodipodi="http://sodipodi.sourceforge.net/DTD/sodipodi-0.dtd"
     xmlns:inkscape="http://www.inkscape.org/namespaces/inkscape"
     width="100"
     height="100"
     viewBox="0 0 100 100"
     id="svg4202"
     version="1.1"
     inkscape:version="0.91 r13725"
     sodipodi:docname="cam.svg"
     inkscape:export-filename="/home/mehdi/Projects/3D/TouchControls/tmp/cam.png"
     inkscape:export-xdpi="90"
     inkscape:export-ydpi="90">
    <defs
         id="defs4204" />
    <sodipodi:namedview
         id="base"
         pagecolor="#161616"
         bordercolor="#666666"
         borderopacity="1.0"
         inkscape:pageopacity="0"
         inkscape:pageshadow="2"
         inkscape:zoom="3.96"
         inkscape:cx="14.77"
         inkscape:cy="43.6"
         inkscape:document-units="px"
         inkscape:current-layer="layer1"
         showgrid="false"
         units="px"
         inkscape:window-width="1440"
         inkscape:window-height="836"
         inkscape:window-x="0"
         inkscape:window-y="22"
         inkscape:window-maximized="1" />
    <metadata
         id="metadata4207">
        <rdf:RDF>
            <cc:Work
                 rdf:about="">
                <dc:format>image/svg+xml</dc:format>
                <dc:type
                     rdf:resource="http://purl.org/dc/dcmitype/StillImage" />
                <dc:title></dc:title>
            </cc:Work>
        </rdf:RDF>
    </metadata>
    <g
         inkscape:label="Layer 1"
         inkscape:groupmode="layer"
         id="layer1"
         transform="translate(0,-952.4)">
        <path
             inkscape:connector-curvature="0"
             d="M 66.32,999.1 C 66.09,999.1 65.88,999.1 65.65,999.1 L 60.94,1001 C 60.88,1001 60.76,1001 60.76,1001 L 60.76,1000 C 60.76,999.1 60.01,998 59.07,998 L 58.61,998 C 60.23,997.1 61.26,994.9 61.26,992.8 61.26,988.1 57.74,984.7 53.42,984.7 49.61,984.7 46.41,987.4 45.73,991.1 44.77,989.5 43.14,988.6 41.27,988.6 38.32,988.6 35.93,991.1 35.93,993.9 35.93,996 36.83,997.1 38.2,998 L 36.74,998 C 35.8,998 35,999.1 35,1000 L 35,1012 C 35,1013 35.8,1013 36.74,1013 L 37.95,1013 37.95,1015 C 37.95,1016 38.79,1016 39.73,1016 L 56.1,1016 C 57.03,1016 57.81,1016 57.81,1015 L 57.81,1013 59.07,1013 C 60.01,1013 60.76,1013 60.76,1012 L 60.76,1010 C 60.76,1010 60.88,1010 60.94,1010 L 65.65,1013 C 65.88,1013 66.09,1013 66.32,1013 67,1013 67.46,1012 67.46,1012 L 67.46,1000 C 67.46,999.1 67,999.1 66.32,999.1 Z M 46.32,996 C 46.77,997.1 47.43,997.1 48.24,998 L 44.34,998 C 45.25,998 45.94,997.1 46.32,996 Z M 43.4,1003 C 43.4,1004 42.99,1004 42.49,1004 L 39.53,1004 C 39.04,1004 38.64,1004 38.64,1003 L 38.64,1002 C 38.64,1002 39.04,1001 39.53,1001 L 42.49,1001 C 42.99,1001 43.4,1002 43.4,1002 L 43.4,1003 Z M 54.29,1009 C 54.29,1010 53.89,1010 53.38,1010 L 39.53,1010 C 39.04,1010 38.64,1010 38.64,1009 L 38.64,1008 C 38.64,1008 39.04,1007 39.53,1007 L 53.38,1007 C 53.89,1007 54.29,1008 54.29,1008 L 54.29,1009 Z"
             id="path4211"
             style="fill:#9696a0;fill-opacity:0.9412" />
        <g
             id="g4213"
             transform="translate(-100.1,869.4)" />
        <g
             id="g4215"
             transform="translate(-100.1,869.4)" />
        <g
             id="g4217"
             transform="translate(-100.1,869.4)" />
        <g
             id="g4219"
             transform="translate(-100.1,869.4)" />
        <g
             id="g4221"
             transform="translate(-100.1,869.4)" />
        <g
             id="g4223"
             transform="translate(-100.1,869.4)" />
        <g
             id="g4225"
             transform="translate(-100.1,869.4)" />
        <g
             id="g4227"
             transform="translate(-100.1,869.4)" />
        <g
             id="g4229"
             transform="translate(-100.1,869.4)" />
        <g
             id="g4231"
             transform="translate(-100.1,869.4)" />
        <g
             id="g4233"
             transform="translate(-100.1,869.4)" />
        <g
             id="g4235"
             transform="translate(-100.1,869.4)" />
        <g
             id="g4237"
             transform="translate(-100.1,869.4)" />
        <g
             id="g4239"
             transform="translate(-100.1,869.4)" />
        <g
             id="g4241"
             transform="translate(-100.1,869.4)" />
        <text
             xml:space="preserve"
             style="font-style:normal;font-weight:normal;font-size:43.261px;line-height:125%;font-family:sans-serif;letter-spacing:0px;word-spacing:0px;fill:#9696a0;fill-opacity:0.9412;stroke:#9696a0;stroke-width:0.7573;stroke-linecap:round;stroke-linejoin:miter;stroke-miterlimit:4;stroke-dasharray:none;stroke-opacity:0.9412"
             x="156.07013"
             y="1018.4828"
             id="text4155-2"
             sodipodi:linespacing="125%"
             transform="matrix(0.9943,0.1063,-0.1063,0.9943,0,0)"><tspan
                 sodipodi:role="line"
                 id="tspan4157-1"
                 x="156.07013"
                 y="1018.4828"
                 style="font-style:normal;font-variant:normal;font-weight:normal;font-stretch:normal;font-size:27.0387px;line-height:125%;font-family:Webdings;-inkscape-font-specification:'Webdings, Normal';text-align:center;writing-mode:lr-tb;text-anchor:middle;fill:#9696a0;fill-opacity:0.9412;stroke:#9696a0;stroke-width:0.7573;stroke-linecap:round;stroke-linejoin:miter;stroke-miterlimit:4;stroke-dasharray:none;stroke-opacity:0.9412">⤻</tspan></text>
    </g>
</svg>
